# Wavefront OBJ file automatically generated by Tiled2Unity

# Vertices (Count = 433)
v -5.76 -3.84 0
v -6.4 -3.84 0
v -6.4 -3.2 0
v -5.76 -3.2 0
v -7.04 -3.84 0
v -7.04 -3.2 0
v -7.68 -3.84 0
v -7.68 -3.2 0
v -6.4 -4.48 0
v -7.04 -4.48 0
v -6.4 -5.12 0
v -7.04 -5.12 0
v -6.4 -5.76 0
v -7.04 -5.76 0
v -6.4 -6.4 0
v -7.04 -6.4 0
v -6.4 -7.04 0
v -7.04 -7.04 0
v -6.4 -7.68 0
v -7.04 -7.68 0
v -6.4 -8.32 0
v -7.04 -8.32 0
v -7.68 -8.32 0
v -7.68 -7.68 0
v -8.32 -8.32 0
v -8.32 -7.68 0
v -8.96 -8.32 0
v -8.96 -7.68 0
v -9.599999 -8.32 0
v -9.599999 -7.68 0
v -10.24 -8.32 0
v -10.24 -7.68 0
v -10.88 -8.32 0
v -10.88 -7.68 0
v -11.52 -8.32 0
v -11.52 -7.68 0
v -12.16 -8.32 0
v -12.16 -7.68 0
v -12.8 -8.32 0
v -12.8 -7.68 0
v -13.44 -8.32 0
v -13.44 -7.68 0
v -14.08 -8.32 0
v -14.08 -7.68 0
v -14.72 -8.32 0
v -14.72 -7.68 0
v -15.36 -8.32 0
v -15.36 -7.68 0
v -16 -8.32 0
v -16 -7.68 0
v -16.64 -8.32 0
v -16.64 -7.68 0
v -17.28 -8.32 0
v -17.28 -7.68 0
v -17.92 -8.32 0
v -17.92 -7.68 0
v -6.4 -8.96 0
v -7.04 -8.96 0
v -17.28 -8.96 0
v -17.92 -8.96 0
v -6.4 -9.599999 0
v -7.04 -9.599999 0
v -16 -9.599999 0
v -16.64 -9.599999 0
v -16.64 -8.96 0
v -16 -8.96 0
v -17.28 -9.599999 0
v -17.92 -9.599999 0
v -18.56 -9.599999 0
v -18.56 -8.96 0
v -19.2 -9.599999 0
v -19.2 -8.96 0
v -19.84 -9.599999 0
v -19.84 -8.96 0
v -20.48 -9.599999 0
v -20.48 -8.96 0
v -21.12 -9.599999 0
v -21.12 -8.96 0
v -21.76 -9.599999 0
v -21.76 -8.96 0
v -22.4 -9.599999 0
v -22.4 -8.96 0
v -6.4 -10.24 0
v -7.04 -10.24 0
v -16 -10.24 0
v -16.64 -10.24 0
v -17.28 -10.24 0
v -17.92 -10.24 0
v -18.56 -10.24 0
v -19.2 -10.24 0
v -19.84 -10.24 0
v -20.48 -10.24 0
v -21.12 -10.24 0
v -21.76 -10.24 0
v -22.4 -10.24 0
v -6.4 -10.88 0
v -7.04 -10.88 0
v -16 -10.88 0
v -16.64 -10.88 0
v -17.28 -10.88 0
v -17.92 -10.88 0
v -18.56 -10.88 0
v -19.2 -10.88 0
v -19.84 -10.88 0
v -20.48 -10.88 0
v -21.12 -10.88 0
v -21.76 -10.88 0
v -22.4 -10.88 0
v -6.4 -11.52 0
v -7.04 -11.52 0
v -16 -11.52 0
v -16.64 -11.52 0
v -17.28 -11.52 0
v -17.92 -11.52 0
v -18.56 -11.52 0
v -19.2 -11.52 0
v -19.84 -11.52 0
v -20.48 -11.52 0
v -21.12 -11.52 0
v -21.76 -11.52 0
v -22.4 -11.52 0
v -6.4 -12.16 0
v -7.04 -12.16 0
v -16 -12.16 0
v -16.64 -12.16 0
v -17.28 -12.16 0
v -17.92 -12.16 0
v -18.56 -12.16 0
v -19.2 -12.16 0
v -19.84 -12.16 0
v -20.48 -12.16 0
v -21.12 -12.16 0
v -21.76 -12.16 0
v -22.4 -12.16 0
v -1.28 -12.8 0
v -1.92 -12.8 0
v -1.92 -12.16 0
v -1.28 -12.16 0
v -2.56 -12.8 0
v -2.56 -12.16 0
v -3.2 -12.8 0
v -3.2 -12.16 0
v -3.84 -12.8 0
v -3.84 -12.16 0
v -4.48 -12.8 0
v -4.48 -12.16 0
v -5.12 -12.8 0
v -5.12 -12.16 0
v -5.76 -12.8 0
v -5.76 -12.16 0
v -6.4 -12.8 0
v -7.04 -12.8 0
v -16 -12.8 0
v -16.64 -12.8 0
v -17.28 -12.8 0
v -17.92 -12.8 0
v -18.56 -12.8 0
v -19.2 -12.8 0
v -19.84 -12.8 0
v -20.48 -12.8 0
v -21.12 -12.8 0
v -21.76 -12.8 0
v -22.4 -12.8 0
v -1.28 -13.44 0
v -1.92 -13.44 0
v -2.56 -13.44 0
v -3.2 -13.44 0
v -3.84 -13.44 0
v -4.48 -13.44 0
v -5.12 -13.44 0
v -5.76 -13.44 0
v -6.4 -13.44 0
v -7.04 -13.44 0
v -16 -13.44 0
v -16.64 -13.44 0
v -17.28 -13.44 0
v -17.92 -13.44 0
v -18.56 -13.44 0
v -19.2 -13.44 0
v -19.84 -13.44 0
v -20.48 -13.44 0
v -21.12 -13.44 0
v -21.76 -13.44 0
v -22.4 -13.44 0
v -1.28 -14.08 0
v -1.92 -14.08 0
v -2.56 -14.08 0
v -3.2 -14.08 0
v -3.84 -14.08 0
v -4.48 -14.08 0
v -5.12 -14.08 0
v -5.76 -14.08 0
v -6.4 -14.08 0
v -7.04 -14.08 0
v -16 -14.08 0
v -16.64 -14.08 0
v -17.28 -14.08 0
v -17.92 -14.08 0
v -18.56 -14.08 0
v -19.2 -14.08 0
v -19.84 -14.08 0
v -20.48 -14.08 0
v -21.12 -14.08 0
v -21.76 -14.08 0
v -22.4 -14.08 0
v -1.28 -14.72 0
v -1.92 -14.72 0
v -2.56 -14.72 0
v -3.2 -14.72 0
v -3.84 -14.72 0
v -4.48 -14.72 0
v -5.12 -14.72 0
v -5.76 -14.72 0
v -6.4 -14.72 0
v -7.04 -14.72 0
v -6.4 -15.36 0
v -7.04 -15.36 0
v -7.68 -15.36 0
v -7.68 -14.72 0
v -8.32 -15.36 0
v -8.32 -14.72 0
v -8.96 -15.36 0
v -8.96 -14.72 0
v -9.599999 -15.36 0
v -9.599999 -14.72 0
v -10.24 -15.36 0
v -10.24 -14.72 0
v -10.88 -15.36 0
v -10.88 -14.72 0
v -11.52 -15.36 0
v -11.52 -14.72 0
v -12.16 -15.36 0
v -12.16 -14.72 0
v -12.8 -15.36 0
v -12.8 -14.72 0
v -6.4 -16 0
v -7.04 -16 0
v -7.68 -16 0
v -8.32 -16 0
v -8.96 -16 0
v -9.599999 -16 0
v -10.24 -16 0
v -10.88 -16 0
v -11.52 -16 0
v -12.16 -16 0
v -12.8 -16 0
v -6.4 -16.64 0
v -7.04 -16.64 0
v -7.68 -16.64 0
v -8.32 -16.64 0
v -8.96 -16.64 0
v -9.599999 -16.64 0
v -10.24 -16.64 0
v -10.88 -16.64 0
v -11.52 -16.64 0
v -12.16 -16.64 0
v -12.8 -16.64 0
v -6.4 -17.28 0
v -7.04 -17.28 0
v -7.68 -17.28 0
v -8.32 -17.28 0
v -8.96 -17.28 0
v -9.599999 -17.28 0
v -10.24 -17.28 0
v -10.88 -17.28 0
v -11.52 -17.28 0
v -12.16 -17.28 0
v -12.8 -17.28 0
v -6.4 -17.92 0
v -7.04 -17.92 0
v -5.76 -4.48 0
v -7.68 -4.48 0
v -5.76 -5.12 0
v -7.68 -5.12 0
v -5.76 -5.76 0
v -7.68 -5.76 0
v -5.76 -6.4 0
v -7.68 -6.4 0
v -5.76 -7.04 0
v -7.68 -7.04 0
v -5.76 -7.68 0
v -8.32 -7.04 0
v -8.96 -7.04 0
v -9.599999 -7.04 0
v -10.24 -7.04 0
v -10.88 -7.04 0
v -11.52 -7.04 0
v -12.16 -7.04 0
v -12.8 -7.04 0
v -13.44 -7.04 0
v -14.08 -7.04 0
v -14.72 -7.04 0
v -15.36 -7.04 0
v -16 -7.04 0
v -16.64 -7.04 0
v -17.28 -7.04 0
v -17.92 -7.04 0
v -18.56 -7.68 0
v -18.56 -7.04 0
v -5.76 -8.32 0
v -18.56 -8.32 0
v -5.76 -8.96 0
v -7.68 -8.96 0
v -8.32 -8.96 0
v -8.96 -8.96 0
v -9.599999 -8.96 0
v -10.24 -8.96 0
v -10.88 -8.96 0
v -11.52 -8.96 0
v -12.16 -8.96 0
v -12.8 -8.96 0
v -13.44 -8.96 0
v -14.08 -8.96 0
v -14.72 -8.96 0
v -15.36 -8.96 0
v -19.2 -8.32 0
v -19.84 -8.32 0
v -20.48 -8.32 0
v -21.12 -8.32 0
v -21.76 -8.32 0
v -22.4 -8.32 0
v -23.04 -8.96 0
v -23.04 -8.32 0
v -5.76 -9.599999 0
v -7.68 -9.599999 0
v -15.36 -9.599999 0
v -23.04 -9.599999 0
v -5.76 -10.24 0
v -7.68 -10.24 0
v -15.36 -10.24 0
v -23.04 -10.24 0
v -5.76 -10.88 0
v -7.68 -10.88 0
v -15.36 -10.88 0
v -23.04 -10.88 0
v -5.76 -11.52 0
v -7.68 -11.52 0
v -15.36 -11.52 0
v -23.04 -11.52 0
v -0.64 -12.16 0
v -1.28 -11.52 0
v -0.64 -11.52 0
v -1.92 -11.52 0
v -2.56 -11.52 0
v -3.2 -11.52 0
v -3.84 -11.52 0
v -4.48 -11.52 0
v -5.12 -11.52 0
v -7.68 -12.16 0
v -15.36 -12.16 0
v -23.04 -12.16 0
v -0.64 -12.8 0
v -7.68 -12.8 0
v -15.36 -12.8 0
v -23.04 -12.8 0
v -0.64 -13.44 0
v -7.68 -13.44 0
v -15.36 -13.44 0
v -23.04 -13.44 0
v -0.64 -14.08 0
v -7.68 -14.08 0
v -15.36 -14.08 0
v -23.04 -14.08 0
v -0.64 -14.72 0
v -8.32 -14.08 0
v -8.96 -14.08 0
v -9.599999 -14.08 0
v -10.24 -14.08 0
v -10.88 -14.08 0
v -11.52 -14.08 0
v -12.16 -14.08 0
v -12.8 -14.08 0
v -13.44 -14.72 0
v -13.44 -14.08 0
v -15.36 -14.72 0
v -16 -14.72 0
v -16.64 -14.72 0
v -17.28 -14.72 0
v -17.92 -14.72 0
v -18.56 -14.72 0
v -19.2 -14.72 0
v -19.84 -14.72 0
v -20.48 -14.72 0
v -21.12 -14.72 0
v -21.76 -14.72 0
v -22.4 -14.72 0
v -23.04 -14.72 0
v -0.64 -15.36 0
v -1.28 -15.36 0
v -1.92 -15.36 0
v -2.56 -15.36 0
v -3.2 -15.36 0
v -3.84 -15.36 0
v -4.48 -15.36 0
v -5.12 -15.36 0
v -5.76 -15.36 0
v -13.44 -15.36 0
v -5.76 -16 0
v -13.44 -16 0
v -5.76 -16.64 0
v -13.44 -16.64 0
v -5.76 -17.28 0
v -13.44 -17.28 0
v -5.12 -17.92 0
v -5.76 -17.92 0
v -5.12 -17.28 0
v -7.68 -17.92 0
v -8.32 -17.92 0
v -8.96 -17.92 0
v -9.599999 -17.92 0
v -10.24 -17.92 0
v -10.88 -17.92 0
v -11.52 -17.92 0
v -12.16 -17.92 0
v -12.8 -17.92 0
v -13.44 -17.92 0
v -5.12 -18.56 0
v -5.76 -18.56 0
v -7.68 -18.56 0
v -8.32 -18.56 0
v -5.12 -19.2 0
v -5.76 -19.2 0
v -7.68 -19.2 0
v -8.32 -19.2 0
v -5.12 -19.84 0
v -5.76 -19.84 0
v -6.4 -19.84 0
v -6.4 -19.2 0
v -7.04 -19.84 0
v -7.04 -19.2 0
v -7.68 -19.84 0
v -8.32 -19.84 0
v -6.4 -18.56 0

# Texture cooridinates (Count = 52)
vt 0.7693529 0.5589456
vt 0.8460318 0.5589456
vt 0.8460318 0.5881132
vt 0.7693529 0.5881132
vt 0.0001220703 0.5295339
vt 0.07680101 0.5295339
vt 0.07680101 0.5587015
vt 0.0001220703 0.5587015
vt 0.0001220703 0.8236515
vt 0.07680101 0.8236515
vt 0.07680101 0.8528191
vt 0.0001220703 0.8528191
vt 0.3078144 0.6471809
vt 0.3844933 0.6471809
vt 0.3844933 0.6763485
vt 0.3078144 0.6763485
vt 0.2308913 0.9118868
vt 0.3075702 0.9118868
vt 0.3075702 0.9410544
vt 0.2308913 0.9410544
vt 0.6924298 0.5001221
vt 0.7691087 0.5001221
vt 0.7691087 0.5292897
vt 0.6924298 0.5292897
vt 0.0001220703 0.9118868
vt 0.07680101 0.9118868
vt 0.07680101 0.9410544
vt 0.0001220703 0.9410544
vt 0.923199 0.9118868
vt 0.9998779 0.9118868
vt 0.9998779 0.9410544
vt 0.923199 0.9410544
vt 0.3847375 0.6471809
vt 0.4614164 0.6471809
vt 0.4614164 0.6763485
vt 0.3847375 0.6763485
vt 0.6924298 0.6471809
vt 0.7691087 0.6471809
vt 0.7691087 0.6763485
vt 0.6924298 0.6763485
vt 0.07704515 0.882475
vt 0.1537241 0.882475
vt 0.1537241 0.9116426
vt 0.07704515 0.9116426
vt 0.07704515 0.8530632
vt 0.1537241 0.8530632
vt 0.1537241 0.8822309
vt 0.07704515 0.8822309
vt 0.07704515 0.5883573
vt 0.1537241 0.5883573
vt 0.1537241 0.617525
vt 0.07704515 0.617525

# Normal
vn 0 0 -1

# Groups (Count = 3)

g mesh_0001
f 1/1/1 2/2/1 3/3/1 4/4/1
f 2/1/1 5/2/1 6/3/1 3/4/1
f 5/1/1 7/2/1 8/3/1 6/4/1
f 9/1/1 10/2/1 5/3/1 2/4/1
f 11/1/1 12/2/1 10/3/1 9/4/1
f 13/1/1 14/2/1 12/3/1 11/4/1
f 15/1/1 16/2/1 14/3/1 13/4/1
f 17/1/1 18/2/1 16/3/1 15/4/1
f 19/1/1 20/2/1 18/3/1 17/4/1
f 21/1/1 22/2/1 20/3/1 19/4/1
f 22/1/1 23/2/1 24/3/1 20/4/1
f 23/1/1 25/2/1 26/3/1 24/4/1
f 25/1/1 27/2/1 28/3/1 26/4/1
f 27/1/1 29/2/1 30/3/1 28/4/1
f 29/1/1 31/2/1 32/3/1 30/4/1
f 31/1/1 33/2/1 34/3/1 32/4/1
f 33/1/1 35/2/1 36/3/1 34/4/1
f 35/1/1 37/2/1 38/3/1 36/4/1
f 37/1/1 39/2/1 40/3/1 38/4/1
f 39/1/1 41/2/1 42/3/1 40/4/1
f 41/1/1 43/2/1 44/3/1 42/4/1
f 43/1/1 45/2/1 46/3/1 44/4/1
f 45/1/1 47/2/1 48/3/1 46/4/1
f 47/1/1 49/2/1 50/3/1 48/4/1
f 49/1/1 51/2/1 52/3/1 50/4/1
f 51/1/1 53/2/1 54/3/1 52/4/1
f 53/1/1 55/2/1 56/3/1 54/4/1
f 57/1/1 58/2/1 22/3/1 21/4/1
f 59/1/1 60/2/1 55/3/1 53/4/1
f 61/1/1 62/2/1 58/3/1 57/4/1
f 63/1/1 64/2/1 65/3/1 66/4/1
f 64/1/1 67/2/1 59/3/1 65/4/1
f 67/1/1 68/2/1 60/3/1 59/4/1
f 68/1/1 69/2/1 70/3/1 60/4/1
f 69/1/1 71/2/1 72/3/1 70/4/1
f 71/1/1 73/2/1 74/3/1 72/4/1
f 73/1/1 75/2/1 76/3/1 74/4/1
f 75/1/1 77/2/1 78/3/1 76/4/1
f 77/1/1 79/2/1 80/3/1 78/4/1
f 79/1/1 81/2/1 82/3/1 80/4/1
f 83/1/1 84/2/1 62/3/1 61/4/1
f 85/1/1 86/2/1 64/3/1 63/4/1
f 86/1/1 87/2/1 67/3/1 64/4/1
f 87/1/1 88/2/1 68/3/1 67/4/1
f 88/1/1 89/2/1 69/3/1 68/4/1
f 89/1/1 90/2/1 71/3/1 69/4/1
f 90/1/1 91/2/1 73/3/1 71/4/1
f 91/1/1 92/2/1 75/3/1 73/4/1
f 92/1/1 93/2/1 77/3/1 75/4/1
f 93/1/1 94/2/1 79/3/1 77/4/1
f 94/1/1 95/2/1 81/3/1 79/4/1
f 96/1/1 97/2/1 84/3/1 83/4/1
f 98/1/1 99/2/1 86/3/1 85/4/1
f 99/1/1 100/2/1 87/3/1 86/4/1
f 100/1/1 101/2/1 88/3/1 87/4/1
f 101/1/1 102/2/1 89/3/1 88/4/1
f 102/1/1 103/2/1 90/3/1 89/4/1
f 103/1/1 104/2/1 91/3/1 90/4/1
f 104/1/1 105/2/1 92/3/1 91/4/1
f 105/1/1 106/2/1 93/3/1 92/4/1
f 106/1/1 107/2/1 94/3/1 93/4/1
f 107/1/1 108/2/1 95/3/1 94/4/1
f 109/1/1 110/2/1 97/3/1 96/4/1
f 111/1/1 112/2/1 99/3/1 98/4/1
f 112/1/1 113/2/1 100/3/1 99/4/1
f 113/1/1 114/2/1 101/3/1 100/4/1
f 114/1/1 115/2/1 102/3/1 101/4/1
f 115/1/1 116/2/1 103/3/1 102/4/1
f 116/1/1 117/2/1 104/3/1 103/4/1
f 117/1/1 118/2/1 105/3/1 104/4/1
f 118/1/1 119/2/1 106/3/1 105/4/1
f 119/1/1 120/2/1 107/3/1 106/4/1
f 120/1/1 121/2/1 108/3/1 107/4/1
f 122/1/1 123/2/1 110/3/1 109/4/1
f 124/1/1 125/2/1 112/3/1 111/4/1
f 125/1/1 126/2/1 113/3/1 112/4/1
f 126/1/1 127/2/1 114/3/1 113/4/1
f 127/1/1 128/2/1 115/3/1 114/4/1
f 128/1/1 129/2/1 116/3/1 115/4/1
f 129/1/1 130/2/1 117/3/1 116/4/1
f 130/1/1 131/2/1 118/3/1 117/4/1
f 131/1/1 132/2/1 119/3/1 118/4/1
f 132/1/1 133/2/1 120/3/1 119/4/1
f 133/1/1 134/2/1 121/3/1 120/4/1
f 135/1/1 136/2/1 137/3/1 138/4/1
f 136/1/1 139/2/1 140/3/1 137/4/1
f 139/1/1 141/2/1 142/3/1 140/4/1
f 141/1/1 143/2/1 144/3/1 142/4/1
f 143/1/1 145/2/1 146/3/1 144/4/1
f 145/1/1 147/2/1 148/3/1 146/4/1
f 147/1/1 149/2/1 150/3/1 148/4/1
f 149/1/1 151/2/1 122/3/1 150/4/1
f 151/1/1 152/2/1 123/3/1 122/4/1
f 153/1/1 154/2/1 125/3/1 124/4/1
f 154/1/1 155/2/1 126/3/1 125/4/1
f 155/1/1 156/2/1 127/3/1 126/4/1
f 156/1/1 157/2/1 128/3/1 127/4/1
f 157/1/1 158/2/1 129/3/1 128/4/1
f 158/1/1 159/2/1 130/3/1 129/4/1
f 159/1/1 160/2/1 131/3/1 130/4/1
f 160/1/1 161/2/1 132/3/1 131/4/1
f 161/1/1 162/2/1 133/3/1 132/4/1
f 162/1/1 163/2/1 134/3/1 133/4/1
f 164/1/1 165/2/1 136/3/1 135/4/1
f 165/1/1 166/2/1 139/3/1 136/4/1
f 166/1/1 167/2/1 141/3/1 139/4/1
f 167/1/1 168/2/1 143/3/1 141/4/1
f 168/1/1 169/2/1 145/3/1 143/4/1
f 169/1/1 170/2/1 147/3/1 145/4/1
f 170/1/1 171/2/1 149/3/1 147/4/1
f 171/1/1 172/2/1 151/3/1 149/4/1
f 172/1/1 173/2/1 152/3/1 151/4/1
f 174/1/1 175/2/1 154/3/1 153/4/1
f 175/1/1 176/2/1 155/3/1 154/4/1
f 176/1/1 177/2/1 156/3/1 155/4/1
f 177/1/1 178/2/1 157/3/1 156/4/1
f 178/1/1 179/2/1 158/3/1 157/4/1
f 179/1/1 180/2/1 159/3/1 158/4/1
f 180/1/1 181/2/1 160/3/1 159/4/1
f 181/1/1 182/2/1 161/3/1 160/4/1
f 182/1/1 183/2/1 162/3/1 161/4/1
f 183/1/1 184/2/1 163/3/1 162/4/1
f 185/1/1 186/2/1 165/3/1 164/4/1
f 186/1/1 187/2/1 166/3/1 165/4/1
f 187/1/1 188/2/1 167/3/1 166/4/1
f 188/1/1 189/2/1 168/3/1 167/4/1
f 189/1/1 190/2/1 169/3/1 168/4/1
f 190/1/1 191/2/1 170/3/1 169/4/1
f 191/1/1 192/2/1 171/3/1 170/4/1
f 193/1/1 194/2/1 173/3/1 172/4/1
f 195/1/1 196/2/1 175/3/1 174/4/1
f 196/1/1 197/2/1 176/3/1 175/4/1
f 197/1/1 198/2/1 177/3/1 176/4/1
f 198/1/1 199/2/1 178/3/1 177/4/1
f 199/1/1 200/2/1 179/3/1 178/4/1
f 200/1/1 201/2/1 180/3/1 179/4/1
f 201/1/1 202/2/1 181/3/1 180/4/1
f 202/1/1 203/2/1 182/3/1 181/4/1
f 203/1/1 204/2/1 183/3/1 182/4/1
f 204/1/1 205/2/1 184/3/1 183/4/1
f 206/1/1 207/2/1 186/3/1 185/4/1
f 207/1/1 208/2/1 187/3/1 186/4/1
f 208/1/1 209/2/1 188/3/1 187/4/1
f 209/1/1 210/2/1 189/3/1 188/4/1
f 210/1/1 211/2/1 190/3/1 189/4/1
f 211/1/1 212/2/1 191/3/1 190/4/1
f 212/1/1 213/2/1 192/3/1 191/4/1
f 214/1/1 215/2/1 194/3/1 193/4/1
f 216/1/1 217/2/1 215/3/1 214/4/1
f 217/1/1 218/2/1 219/3/1 215/4/1
f 218/1/1 220/2/1 221/3/1 219/4/1
f 220/1/1 222/2/1 223/3/1 221/4/1
f 222/1/1 224/2/1 225/3/1 223/4/1
f 224/1/1 226/2/1 227/3/1 225/4/1
f 226/1/1 228/2/1 229/3/1 227/4/1
f 228/1/1 230/2/1 231/3/1 229/4/1
f 230/1/1 232/2/1 233/3/1 231/4/1
f 232/1/1 234/2/1 235/3/1 233/4/1
f 236/1/1 237/2/1 217/3/1 216/4/1
f 238/1/1 239/2/1 220/3/1 218/4/1
f 239/1/1 240/2/1 222/3/1 220/4/1
f 240/1/1 241/2/1 224/3/1 222/4/1
f 241/1/1 242/2/1 226/3/1 224/4/1
f 242/1/1 243/2/1 228/3/1 226/4/1
f 243/1/1 244/2/1 230/3/1 228/4/1
f 244/1/1 245/2/1 232/3/1 230/4/1
f 245/1/1 246/2/1 234/3/1 232/4/1
f 247/1/1 248/2/1 237/3/1 236/4/1
f 249/1/1 250/2/1 239/3/1 238/4/1
f 250/1/1 251/2/1 240/3/1 239/4/1
f 251/1/1 252/2/1 241/3/1 240/4/1
f 252/1/1 253/2/1 242/3/1 241/4/1
f 253/1/1 254/2/1 243/3/1 242/4/1
f 254/1/1 255/2/1 244/3/1 243/4/1
f 255/1/1 256/2/1 245/3/1 244/4/1
f 256/1/1 257/2/1 246/3/1 245/4/1
f 258/1/1 259/2/1 248/3/1 247/4/1
f 260/1/1 261/2/1 250/3/1 249/4/1
f 261/1/1 262/2/1 251/3/1 250/4/1
f 262/1/1 263/2/1 252/3/1 251/4/1
f 263/1/1 264/2/1 253/3/1 252/4/1
f 264/1/1 265/2/1 254/3/1 253/4/1
f 265/1/1 266/2/1 255/3/1 254/4/1
f 266/1/1 267/2/1 256/3/1 255/4/1
f 267/1/1 268/2/1 257/3/1 256/4/1
f 269/1/1 270/2/1 259/3/1 258/4/1

g mesh_0002
f 271/5/1 9/6/1 2/7/1 1/8/1
f 10/5/1 272/6/1 7/7/1 5/8/1
f 273/9/1 11/10/1 9/11/1 271/12/1
f 12/9/1 274/10/1 272/11/1 10/12/1
f 275/9/1 13/10/1 11/11/1 273/12/1
f 14/9/1 276/10/1 274/11/1 12/12/1
f 277/9/1 15/10/1 13/11/1 275/12/1
f 16/9/1 278/10/1 276/11/1 14/12/1
f 279/9/1 17/10/1 15/11/1 277/12/1
f 18/9/1 280/10/1 278/11/1 16/12/1
f 281/9/1 19/10/1 17/11/1 279/12/1
f 20/13/1 24/14/1 280/15/1 18/16/1
f 24/17/1 26/18/1 282/19/1 280/20/1
f 26/17/1 28/18/1 283/19/1 282/20/1
f 28/17/1 30/18/1 284/19/1 283/20/1
f 30/17/1 32/18/1 285/19/1 284/20/1
f 32/17/1 34/18/1 286/19/1 285/20/1
f 34/17/1 36/18/1 287/19/1 286/20/1
f 36/17/1 38/18/1 288/19/1 287/20/1
f 38/17/1 40/18/1 289/19/1 288/20/1
f 40/17/1 42/18/1 290/19/1 289/20/1
f 42/17/1 44/18/1 291/19/1 290/20/1
f 44/17/1 46/18/1 292/19/1 291/20/1
f 46/17/1 48/18/1 293/19/1 292/20/1
f 48/17/1 50/18/1 294/19/1 293/20/1
f 50/17/1 52/18/1 295/19/1 294/20/1
f 52/17/1 54/18/1 296/19/1 295/20/1
f 54/17/1 56/18/1 297/19/1 296/20/1
f 56/21/1 298/22/1 299/23/1 297/24/1
f 300/9/1 21/10/1 19/11/1 281/12/1
f 55/9/1 301/10/1 298/11/1 56/12/1
f 302/9/1 57/10/1 21/11/1 300/12/1
f 58/25/1 303/26/1 23/27/1 22/28/1
f 303/17/1 304/18/1 25/19/1 23/20/1
f 304/17/1 305/18/1 27/19/1 25/20/1
f 305/17/1 306/18/1 29/19/1 27/20/1
f 306/17/1 307/18/1 31/19/1 29/20/1
f 307/17/1 308/18/1 33/19/1 31/20/1
f 308/17/1 309/18/1 35/19/1 33/20/1
f 309/17/1 310/18/1 37/19/1 35/20/1
f 310/17/1 311/18/1 39/19/1 37/20/1
f 311/17/1 312/18/1 41/19/1 39/20/1
f 312/17/1 313/18/1 43/19/1 41/20/1
f 313/17/1 314/18/1 45/19/1 43/20/1
f 314/17/1 315/18/1 47/19/1 45/20/1
f 315/29/1 66/30/1 49/31/1 47/32/1
f 66/17/1 65/18/1 51/19/1 49/20/1
f 65/33/1 59/34/1 53/35/1 51/36/1
f 60/13/1 70/14/1 301/15/1 55/16/1
f 70/17/1 72/18/1 316/19/1 301/20/1
f 72/17/1 74/18/1 317/19/1 316/20/1
f 74/17/1 76/18/1 318/19/1 317/20/1
f 76/17/1 78/18/1 319/19/1 318/20/1
f 78/17/1 80/18/1 320/19/1 319/20/1
f 80/17/1 82/18/1 321/19/1 320/20/1
f 82/21/1 322/22/1 323/23/1 321/24/1
f 324/9/1 61/10/1 57/11/1 302/12/1
f 62/9/1 325/10/1 303/11/1 58/12/1
f 326/9/1 63/10/1 66/11/1 315/12/1
f 81/9/1 327/10/1 322/11/1 82/12/1
f 328/9/1 83/10/1 61/11/1 324/12/1
f 84/9/1 329/10/1 325/11/1 62/12/1
f 330/9/1 85/10/1 63/11/1 326/12/1
f 95/9/1 331/10/1 327/11/1 81/12/1
f 332/9/1 96/10/1 83/11/1 328/12/1
f 97/9/1 333/10/1 329/11/1 84/12/1
f 334/9/1 98/10/1 85/11/1 330/12/1
f 108/9/1 335/10/1 331/11/1 95/12/1
f 336/9/1 109/10/1 96/11/1 332/12/1
f 110/9/1 337/10/1 333/11/1 97/12/1
f 338/9/1 111/10/1 98/11/1 334/12/1
f 121/9/1 339/10/1 335/11/1 108/12/1
f 340/25/1 138/26/1 341/27/1 342/28/1
f 138/17/1 137/18/1 343/19/1 341/20/1
f 137/17/1 140/18/1 344/19/1 343/20/1
f 140/17/1 142/18/1 345/19/1 344/20/1
f 142/17/1 144/18/1 346/19/1 345/20/1
f 144/17/1 146/18/1 347/19/1 346/20/1
f 146/17/1 148/18/1 348/19/1 347/20/1
f 148/17/1 150/18/1 336/19/1 348/20/1
f 150/37/1 122/38/1 109/39/1 336/40/1
f 123/9/1 349/10/1 337/11/1 110/12/1
f 350/9/1 124/10/1 111/11/1 338/12/1
f 134/9/1 351/10/1 339/11/1 121/12/1
f 352/9/1 135/10/1 138/11/1 340/12/1
f 152/9/1 353/10/1 349/11/1 123/12/1
f 354/9/1 153/10/1 124/11/1 350/12/1
f 163/9/1 355/10/1 351/11/1 134/12/1
f 356/9/1 164/10/1 135/11/1 352/12/1
f 173/9/1 357/10/1 353/11/1 152/12/1
f 358/9/1 174/10/1 153/11/1 354/12/1
f 184/9/1 359/10/1 355/11/1 163/12/1
f 360/9/1 185/10/1 164/11/1 356/12/1
f 192/5/1 193/6/1 172/7/1 171/8/1
f 194/9/1 361/10/1 357/11/1 173/12/1
f 362/9/1 195/10/1 174/11/1 358/12/1
f 205/9/1 363/10/1 359/11/1 184/12/1
f 364/9/1 206/10/1 185/11/1 360/12/1
f 213/9/1 214/10/1 193/11/1 192/12/1
f 215/13/1 219/14/1 361/15/1 194/16/1
f 219/17/1 221/18/1 365/19/1 361/20/1
f 221/17/1 223/18/1 366/19/1 365/20/1
f 223/17/1 225/18/1 367/19/1 366/20/1
f 225/17/1 227/18/1 368/19/1 367/20/1
f 227/17/1 229/18/1 369/19/1 368/20/1
f 229/17/1 231/18/1 370/19/1 369/20/1
f 231/17/1 233/18/1 371/19/1 370/20/1
f 233/17/1 235/18/1 372/19/1 371/20/1
f 235/21/1 373/22/1 374/23/1 372/24/1
f 375/13/1 376/14/1 195/15/1 362/16/1
f 376/17/1 377/18/1 196/19/1 195/20/1
f 377/17/1 378/18/1 197/19/1 196/20/1
f 378/17/1 379/18/1 198/19/1 197/20/1
f 379/17/1 380/18/1 199/19/1 198/20/1
f 380/17/1 381/18/1 200/19/1 199/20/1
f 381/17/1 382/18/1 201/19/1 200/20/1
f 382/17/1 383/18/1 202/19/1 201/20/1
f 383/17/1 384/18/1 203/19/1 202/20/1
f 384/17/1 385/18/1 204/19/1 203/20/1
f 385/17/1 386/18/1 205/19/1 204/20/1
f 386/37/1 387/38/1 363/39/1 205/40/1
f 388/13/1 389/14/1 206/15/1 364/16/1
f 389/17/1 390/18/1 207/19/1 206/20/1
f 390/17/1 391/18/1 208/19/1 207/20/1
f 391/17/1 392/18/1 209/19/1 208/20/1
f 392/17/1 393/18/1 210/19/1 209/20/1
f 393/17/1 394/18/1 211/19/1 210/20/1
f 394/17/1 395/18/1 212/19/1 211/20/1
f 395/17/1 396/18/1 213/19/1 212/20/1
f 396/30/1 216/31/1 214/32/1 213/29/1
f 234/9/1 397/10/1 373/11/1 235/12/1
f 398/9/1 236/10/1 216/11/1 396/12/1
f 237/5/1 238/6/1 218/7/1 217/8/1
f 246/9/1 399/10/1 397/11/1 234/12/1
f 400/9/1 247/10/1 236/11/1 398/12/1
f 248/9/1 249/10/1 238/11/1 237/12/1
f 257/9/1 401/10/1 399/11/1 246/12/1
f 402/9/1 258/10/1 247/11/1 400/12/1
f 259/9/1 260/10/1 249/11/1 248/12/1
f 268/9/1 403/10/1 401/11/1 257/12/1
f 404/25/1 405/26/1 402/27/1 406/28/1
f 405/37/1 269/38/1 258/39/1 402/40/1
f 270/13/1 407/14/1 260/15/1 259/16/1
f 407/29/1 408/30/1 261/31/1 260/32/1
f 408/17/1 409/18/1 262/19/1 261/20/1
f 409/17/1 410/18/1 263/19/1 262/20/1
f 410/17/1 411/18/1 264/19/1 263/20/1
f 411/17/1 412/18/1 265/19/1 264/20/1
f 412/17/1 413/18/1 266/19/1 265/20/1
f 413/17/1 414/18/1 267/19/1 266/20/1
f 414/17/1 415/18/1 268/19/1 267/20/1
f 415/37/1 416/38/1 403/39/1 268/40/1
f 417/9/1 418/10/1 405/11/1 404/12/1
f 419/9/1 420/10/1 408/11/1 407/12/1
f 421/9/1 422/10/1 418/11/1 417/12/1
f 423/9/1 424/10/1 420/11/1 419/12/1
f 425/13/1 426/14/1 422/15/1 421/16/1
f 426/17/1 427/18/1 428/19/1 422/20/1
f 427/17/1 429/18/1 430/19/1 428/20/1
f 429/17/1 431/18/1 423/19/1 430/20/1
f 431/37/1 432/38/1 424/39/1 423/40/1

g mesh_0004
f 9/41/1 10/42/1 5/43/1 2/44/1
f 11/45/1 12/46/1 10/47/1 9/48/1
f 13/45/1 14/46/1 12/47/1 11/48/1
f 15/45/1 16/46/1 14/47/1 13/48/1
f 17/45/1 18/46/1 16/47/1 15/48/1
f 19/45/1 20/46/1 18/47/1 17/48/1
f 21/45/1 22/46/1 20/47/1 19/48/1
f 57/45/1 58/46/1 22/47/1 21/48/1
f 61/45/1 62/46/1 58/47/1 57/48/1
f 63/41/1 64/42/1 65/43/1 66/44/1
f 83/45/1 84/46/1 62/47/1 61/48/1
f 85/45/1 86/46/1 64/47/1 63/48/1
f 96/45/1 97/46/1 84/47/1 83/48/1
f 98/45/1 99/46/1 86/47/1 85/48/1
f 109/45/1 110/46/1 97/47/1 96/48/1
f 111/45/1 112/46/1 99/47/1 98/48/1
f 122/49/1 123/50/1 110/51/1 109/52/1
f 124/45/1 125/46/1 112/47/1 111/48/1
f 135/41/1 136/42/1 137/43/1 138/44/1
f 153/45/1 154/46/1 125/47/1 124/48/1
f 164/45/1 165/46/1 136/47/1 135/48/1
f 174/45/1 175/46/1 154/47/1 153/48/1
f 185/45/1 186/46/1 165/47/1 164/48/1
f 193/41/1 194/42/1 173/43/1 172/44/1
f 195/45/1 196/46/1 175/47/1 174/48/1
f 206/45/1 207/46/1 186/47/1 185/48/1
f 214/45/1 215/46/1 194/47/1 193/48/1
f 216/45/1 217/46/1 215/47/1 214/48/1
f 236/45/1 237/46/1 217/47/1 216/48/1
f 238/41/1 239/42/1 220/43/1 218/44/1
f 247/45/1 248/46/1 237/47/1 236/48/1
f 249/45/1 250/46/1 239/47/1 238/48/1
f 258/45/1 259/46/1 248/47/1 247/48/1
f 260/45/1 261/46/1 250/47/1 249/48/1
f 269/49/1 270/50/1 259/51/1 258/52/1
f 418/41/1 433/42/1 269/43/1 405/44/1
f 422/45/1 428/46/1 433/47/1 418/48/1

