# Wavefront OBJ file automatically generated by Tiled2Unity

# Vertices (Count = 84)
v -0.32 -0.48 0
v -0.4 -0.48 0
v -0.4 -0.4 0
v -0.32 -0.4 0
v -0.48 -0.48 0
v -0.48 -0.4 0
v -0.56 -0.48 0
v -0.56 -0.4 0
v -0.64 -0.48 0
v -0.64 -0.4 0
v -0.72 -0.48 0
v -0.72 -0.4 0
v -0.8 -0.48 0
v -0.8 -0.4 0
v -0.88 -0.48 0
v -0.88 -0.4 0
v -0.96 -0.48 0
v -0.96 -0.4 0
v -1.04 -0.48 0
v -1.04 -0.4 0
v -1.12 -0.48 0
v -1.12 -0.4 0
v -1.2 -0.48 0
v -1.2 -0.4 0
v -0.32 -0.56 0
v -0.4 -0.56 0
v -0.48 -0.56 0
v -0.56 -0.56 0
v -0.64 -0.56 0
v -0.72 -0.56 0
v -0.8 -0.56 0
v -0.88 -0.56 0
v -0.96 -0.56 0
v -1.04 -0.56 0
v -1.12 -0.56 0
v -1.2 -0.56 0
v -0.32 -0.64 0
v -0.4 -0.64 0
v -0.48 -0.64 0
v -0.56 -0.64 0
v -0.64 -0.64 0
v -0.72 -0.64 0
v -0.8 -0.64 0
v -0.88 -0.64 0
v -0.96 -0.64 0
v -1.04 -0.64 0
v -1.12 -0.64 0
v -1.2 -0.64 0
v -0.32 -0.72 0
v -0.4 -0.72 0
v -0.48 -0.72 0
v -0.56 -0.72 0
v -0.64 -0.72 0
v -0.72 -0.72 0
v -0.8 -0.72 0
v -0.88 -0.72 0
v -0.96 -0.72 0
v -1.04 -0.72 0
v -1.12 -0.72 0
v -1.2 -0.72 0
v -0.32 -0.8 0
v -0.4 -0.8 0
v -0.48 -0.8 0
v -0.56 -0.8 0
v -0.64 -0.8 0
v -0.72 -0.8 0
v -0.8 -0.8 0
v -0.88 -0.8 0
v -0.96 -0.8 0
v -1.04 -0.8 0
v -1.12 -0.8 0
v -1.2 -0.8 0
v -0.32 -0.88 0
v -0.4 -0.88 0
v -0.48 -0.88 0
v -0.56 -0.88 0
v -0.64 -0.88 0
v -0.72 -0.88 0
v -0.8 -0.88 0
v -0.88 -0.88 0
v -0.96 -0.88 0
v -1.04 -0.88 0
v -1.12 -0.88 0
v -1.2 -0.88 0

# Texture cooridinates (Count = 36)
vt 0.009467864 0.8462759
vt 0.01856952 0.8462759
vt 0.01856952 0.8652625
vt 0.009467864 0.8652625
vt 0.01881366 0.8462759
vt 0.02791531 0.8462759
vt 0.02791531 0.8652625
vt 0.01881366 0.8652625
vt 0.08423422 0.8462759
vt 0.09333587 0.8462759
vt 0.09333587 0.8652625
vt 0.08423422 0.8652625
vt 0.009467864 0.8270451
vt 0.01856952 0.8270451
vt 0.01856952 0.8460318
vt 0.009467864 0.8460318
vt 0.01881366 0.8270451
vt 0.02791531 0.8270451
vt 0.02791531 0.8460318
vt 0.01881366 0.8460318
vt 0.08423422 0.8270451
vt 0.09333587 0.8270451
vt 0.09333587 0.8460318
vt 0.08423422 0.8460318
vt 0.009467864 0.7885836
vt 0.01856952 0.7885836
vt 0.01856952 0.8075702
vt 0.009467864 0.8075702
vt 0.01881366 0.7885836
vt 0.02791531 0.7885836
vt 0.02791531 0.8075702
vt 0.01881366 0.8075702
vt 0.08423422 0.7885836
vt 0.09333587 0.7885836
vt 0.09333587 0.8075702
vt 0.08423422 0.8075702

# Normal
vn 0 0 -1

# Groups (Count = 1)

g mesh_0001
f 1/1/1 2/2/1 3/3/1 4/4/1
f 2/5/1 5/6/1 6/7/1 3/8/1
f 5/5/1 7/6/1 8/7/1 6/8/1
f 7/5/1 9/6/1 10/7/1 8/8/1
f 9/5/1 11/6/1 12/7/1 10/8/1
f 11/5/1 13/6/1 14/7/1 12/8/1
f 13/5/1 15/6/1 16/7/1 14/8/1
f 15/5/1 17/6/1 18/7/1 16/8/1
f 17/5/1 19/6/1 20/7/1 18/8/1
f 19/5/1 21/6/1 22/7/1 20/8/1
f 21/9/1 23/10/1 24/11/1 22/12/1
f 25/13/1 26/14/1 2/15/1 1/16/1
f 26/17/1 27/18/1 5/19/1 2/20/1
f 27/17/1 28/18/1 7/19/1 5/20/1
f 28/17/1 29/18/1 9/19/1 7/20/1
f 29/17/1 30/18/1 11/19/1 9/20/1
f 30/17/1 31/18/1 13/19/1 11/20/1
f 31/17/1 32/18/1 15/19/1 13/20/1
f 32/17/1 33/18/1 17/19/1 15/20/1
f 33/17/1 34/18/1 19/19/1 17/20/1
f 34/17/1 35/18/1 21/19/1 19/20/1
f 35/21/1 36/22/1 23/23/1 21/24/1
f 37/13/1 38/14/1 26/15/1 25/16/1
f 38/17/1 39/18/1 27/19/1 26/20/1
f 39/17/1 40/18/1 28/19/1 27/20/1
f 40/17/1 41/18/1 29/19/1 28/20/1
f 41/17/1 42/18/1 30/19/1 29/20/1
f 42/17/1 43/18/1 31/19/1 30/20/1
f 43/17/1 44/18/1 32/19/1 31/20/1
f 44/17/1 45/18/1 33/19/1 32/20/1
f 45/17/1 46/18/1 34/19/1 33/20/1
f 46/17/1 47/18/1 35/19/1 34/20/1
f 47/21/1 48/22/1 36/23/1 35/24/1
f 49/13/1 50/14/1 38/15/1 37/16/1
f 50/17/1 51/18/1 39/19/1 38/20/1
f 51/17/1 52/18/1 40/19/1 39/20/1
f 52/17/1 53/18/1 41/19/1 40/20/1
f 53/17/1 54/18/1 42/19/1 41/20/1
f 54/17/1 55/18/1 43/19/1 42/20/1
f 55/17/1 56/18/1 44/19/1 43/20/1
f 56/17/1 57/18/1 45/19/1 44/20/1
f 57/17/1 58/18/1 46/19/1 45/20/1
f 58/17/1 59/18/1 47/19/1 46/20/1
f 59/21/1 60/22/1 48/23/1 47/24/1
f 61/13/1 62/14/1 50/15/1 49/16/1
f 62/17/1 63/18/1 51/19/1 50/20/1
f 63/17/1 64/18/1 52/19/1 51/20/1
f 64/17/1 65/18/1 53/19/1 52/20/1
f 65/17/1 66/18/1 54/19/1 53/20/1
f 66/17/1 67/18/1 55/19/1 54/20/1
f 67/17/1 68/18/1 56/19/1 55/20/1
f 68/17/1 69/18/1 57/19/1 56/20/1
f 69/17/1 70/18/1 58/19/1 57/20/1
f 70/17/1 71/18/1 59/19/1 58/20/1
f 71/21/1 72/22/1 60/23/1 59/24/1
f 73/25/1 74/26/1 62/27/1 61/28/1
f 74/29/1 75/30/1 63/31/1 62/32/1
f 75/29/1 76/30/1 64/31/1 63/32/1
f 76/29/1 77/30/1 65/31/1 64/32/1
f 77/29/1 78/30/1 66/31/1 65/32/1
f 78/29/1 79/30/1 67/31/1 66/32/1
f 79/29/1 80/30/1 68/31/1 67/32/1
f 80/29/1 81/30/1 69/31/1 68/32/1
f 81/29/1 82/30/1 70/31/1 69/32/1
f 82/29/1 83/30/1 71/31/1 70/32/1
f 83/33/1 84/34/1 72/35/1 71/36/1

